<svg xmlns="http://www.w3.org/2000/svg" width="760" height="430" viewBox="0 0 760 430"><rect width="100%" height="100%" fill="#fbfaf7"/><text x="56" y="44" font-family="Inter, Helvetica, Arial, sans-serif" font-size="24" font-weight="700" fill="#111827">Claim Scope Matrix</text><text x="56" y="70" font-family="Inter, Helvetica, Arial, sans-serif" font-size="13" fill="#4b5563">Use this wording boundary in papers, decks, and README copy.</text><rect x="72" y="96" width="138" height="32" rx="6" fill="#0f766e"/><text x="141" y="117" text-anchor="middle" font-size="13" fill="#ffffff">Breakthrough</text><text x="232" y="117" font-size="14" fill="#111827">fixed state long context recall</text><text x="640" y="117" text-anchor="end" font-size="13" fill="#334155">100/100</text><rect x="72" y="137" width="138" height="32" rx="6" fill="#2563eb"/><text x="141" y="158" text-anchor="middle" font-size="13" fill="#ffffff">Candidate</text><text x="232" y="158" font-size="14" fill="#111827">stateless private ai handoff</text><text x="640" y="158" text-anchor="end" font-size="13" fill="#334155">100/100</text><rect x="72" y="178" width="138" height="32" rx="6" fill="#0891b2"/><text x="141" y="199" text-anchor="middle" font-size="13" fill="#ffffff">Supporting</text><text x="232" y="199" font-size="14" fill="#111827">tier2 fixed corpus evidence</text><text x="640" y="199" text-anchor="end" font-size="13" fill="#334155">100/100</text><rect x="72" y="219" width="138" height="32" rx="6" fill="#4f46e5"/><text x="141" y="240" text-anchor="middle" font-size="13" fill="#ffffff">Readiness</text><text x="232" y="240" font-size="14" fill="#111827">next evidence readiness</text><text x="640" y="240" text-anchor="end" font-size="13" fill="#334155">78/100</text><rect x="72" y="260" width="138" height="32" rx="6" fill="#7c3aed"/><text x="141" y="281" text-anchor="middle" font-size="13" fill="#ffffff">Supporting</text><text x="232" y="281" font-size="14" fill="#111827">chunked archive</text><text x="640" y="281" text-anchor="end" font-size="13" fill="#334155">70/100</text><rect x="72" y="301" width="138" height="32" rx="6" fill="#b45309"/><text x="141" y="322" text-anchor="middle" font-size="13" fill="#ffffff">Supporting</text><text x="232" y="322" font-size="14" fill="#111827">drop in lossless kv replacement</text><text x="640" y="322" text-anchor="end" font-size="13" fill="#334155">100/100</text><rect x="72" y="342" width="138" height="32" rx="6" fill="#7c2d12"/><text x="141" y="363" text-anchor="middle" font-size="13" fill="#ffffff">Not Yet</text><text x="232" y="363" font-size="14" fill="#111827">pure compact semantic equivalence</text><text x="640" y="363" text-anchor="end" font-size="13" fill="#334155">45/100</text></svg>
