<svg xmlns="http://www.w3.org/2000/svg" width="720" height="430" viewBox="0 0 720 430"><rect width="100%" height="100%" fill="#fbfaf7"/><text x="56" y="44" font-family="Inter, Helvetica, Arial, sans-serif" font-size="24" font-weight="700" fill="#111827">Fixed-State Scaling Guard</text><text x="56" y="70" font-family="Inter, Helvetica, Arial, sans-serif" font-size="13" fill="#4b5563">Standard KV grows with tokens; Catalyst state remains fixed at the published state boundary.</text><line x1="70" y1="330" x2="660" y2="330" stroke="#d1d5db"/><rect x="90" y="106.14" width="46" height="223.86" rx="5" fill="#334155"/><text x="113.0" y="98.14" text-anchor="middle" font-size="11" fill="#111827">15.6 GiB</text><rect x="146" y="237.73" width="46" height="92.27" rx="5" fill="#0f766e"/><text x="169.0" y="229.73" text-anchor="middle" font-size="11" fill="#111827">16.0 KiB</text><text x="142" y="362" text-anchor="middle" font-size="12" fill="#111827">128K</text><rect x="235" y="92.96" width="46" height="237.04" rx="5" fill="#334155"/><text x="258.0" y="84.96" text-anchor="middle" font-size="11" fill="#111827">62.5 GiB</text><rect x="291" y="237.73" width="46" height="92.27" rx="5" fill="#0f766e"/><text x="314.0" y="229.73" text-anchor="middle" font-size="11" fill="#111827">16.0 KiB</text><text x="287" y="362" text-anchor="middle" font-size="12" fill="#111827">512K</text><rect x="380" y="86.59" width="46" height="243.41" rx="5" fill="#334155"/><text x="403.0" y="78.59" text-anchor="middle" font-size="11" fill="#111827">122.1 GiB</text><rect x="436" y="237.73" width="46" height="92.27" rx="5" fill="#0f766e"/><text x="459.0" y="229.73" text-anchor="middle" font-size="11" fill="#111827">16.0 KiB</text><text x="432" y="362" text-anchor="middle" font-size="12" fill="#111827">1000K</text><rect x="525" y="80.00" width="46" height="250.00" rx="5" fill="#334155"/><text x="548.0" y="72.00" text-anchor="middle" font-size="11" fill="#111827">244.1 GiB</text><rect x="581" y="237.73" width="46" height="92.27" rx="5" fill="#0f766e"/><text x="604.0" y="229.73" text-anchor="middle" font-size="11" fill="#111827">16.0 KiB</text><text x="577" y="362" text-anchor="middle" font-size="12" fill="#111827">2000K</text><rect x="92" y="390" width="14" height="14" fill="#334155"/><text x="112" y="402" font-size="12" fill="#111827">Standard KV</text><rect x="242" y="390" width="14" height="14" fill="#0f766e"/><text x="262" y="402" font-size="12" fill="#111827">Catalyst state</text></svg>
