<svg xmlns="http://www.w3.org/2000/svg" width="760" height="430" viewBox="0 0 760 430"><rect width="100%" height="100%" fill="#fbfaf7"/><text x="56" y="44" font-family="Inter, Helvetica, Arial, sans-serif" font-size="24" font-weight="700" fill="#111827">Official RULER Generated Subset</text><text x="56" y="70" font-family="Inter, Helvetica, Arial, sans-serif" font-size="13" fill="#4b5563">Generated from official benchmark data/scoring with Workers AI inference.</text><line x1="70" y1="330" x2="690" y2="330" stroke="#d1d5db"/><rect x="81.4" y="95.0" width="28.9" height="235.0" rx="5" fill="#4f46e5"/><text x="95.8" y="85.0" text-anchor="middle" font-size="10" fill="#111827">100.0</text><text x="95.8" y="364" text-anchor="middle" font-size="9" fill="#111827">cwe@4K</text><rect x="133.0" y="173.3" width="28.9" height="156.7" rx="5" fill="#4f46e5"/><text x="147.5" y="163.3" text-anchor="middle" font-size="10" fill="#111827">66.7</text><text x="147.5" y="364" text-anchor="middle" font-size="9" fill="#111827">fwe@4K</text><rect x="184.7" y="95.0" width="28.9" height="235.0" rx="5" fill="#4f46e5"/><text x="199.2" y="85.0" text-anchor="middle" font-size="10" fill="#111827">100.0</text><text x="199.2" y="364" text-anchor="middle" font-size="9" fill="#111827">niah_multikey_2@4K</text><rect x="236.4" y="95.0" width="28.9" height="235.0" rx="5" fill="#4f46e5"/><text x="250.8" y="85.0" text-anchor="middle" font-size="10" fill="#111827">100.0</text><text x="250.8" y="364" text-anchor="middle" font-size="9" fill="#111827">niah_multikey_3@4K</text><rect x="288.0" y="95.0" width="28.9" height="235.0" rx="5" fill="#4f46e5"/><text x="302.5" y="85.0" text-anchor="middle" font-size="10" fill="#111827">100.0</text><text x="302.5" y="364" text-anchor="middle" font-size="9" fill="#111827">niah_single_1@4K</text><rect x="339.7" y="95.0" width="28.9" height="235.0" rx="5" fill="#4f46e5"/><text x="354.2" y="85.0" text-anchor="middle" font-size="10" fill="#111827">100.0</text><text x="354.2" y="364" text-anchor="middle" font-size="9" fill="#111827">vt@4K</text><rect x="391.4" y="95.0" width="28.9" height="235.0" rx="5" fill="#4f46e5"/><text x="405.8" y="85.0" text-anchor="middle" font-size="10" fill="#111827">100.0</text><text x="405.8" y="364" text-anchor="middle" font-size="9" fill="#111827">cwe@8K</text><rect x="443.0" y="95.0" width="28.9" height="235.0" rx="5" fill="#4f46e5"/><text x="457.5" y="85.0" text-anchor="middle" font-size="10" fill="#111827">100.0</text><text x="457.5" y="364" text-anchor="middle" font-size="9" fill="#111827">fwe@8K</text><rect x="494.7" y="95.0" width="28.9" height="235.0" rx="5" fill="#4f46e5"/><text x="509.2" y="85.0" text-anchor="middle" font-size="10" fill="#111827">100.0</text><text x="509.2" y="364" text-anchor="middle" font-size="9" fill="#111827">niah_multikey_2@8K</text><rect x="546.4" y="95.0" width="28.9" height="235.0" rx="5" fill="#4f46e5"/><text x="560.8" y="85.0" text-anchor="middle" font-size="10" fill="#111827">100.0</text><text x="560.8" y="364" text-anchor="middle" font-size="9" fill="#111827">niah_multikey_3@8K</text><rect x="598.0" y="95.0" width="28.9" height="235.0" rx="5" fill="#4f46e5"/><text x="612.5" y="85.0" text-anchor="middle" font-size="10" fill="#111827">100.0</text><text x="612.5" y="364" text-anchor="middle" font-size="9" fill="#111827">niah_single_1@8K</text><rect x="649.7" y="95.0" width="28.9" height="235.0" rx="5" fill="#4f46e5"/><text x="664.2" y="85.0" text-anchor="middle" font-size="10" fill="#111827">100.0</text><text x="664.2" y="364" text-anchor="middle" font-size="9" fill="#111827">vt@8K</text></svg>
