<svg xmlns="http://www.w3.org/2000/svg" width="760" height="430" viewBox="0 0 760 430"><rect width="100%" height="100%" fill="#fbfaf7"/><text x="56" y="44" font-family="Inter, Helvetica, Arial, sans-serif" font-size="24" font-weight="700" fill="#111827">Median Query Latency</text><text x="56" y="70" font-family="Inter, Helvetica, Arial, sans-serif" font-size="13" fill="#4b5563">Catalyst fixed-state query batches compared with linear scan over retained records.</text><line x1="70" y1="330" x2="690" y2="330" stroke="#d1d5db"/><rect x="64.0" y="-5574.00" width="37.199999999999996" height="5904.00" rx="5" fill="#2563eb"/><text x="82.6" y="18.00" text-anchor="middle" font-size="11" fill="#111827">6566 us</text><rect x="109.19999999999999" y="301.15" width="37.199999999999996" height="28.85" rx="5" fill="#475569"/><text x="127.79999999999998" y="293.15" text-anchor="middle" font-size="11" fill="#111827">32 us</text><text x="101.19999999999999" y="362" text-anchor="middle" font-size="9" fill="#111827">single</text><rect x="188.0" y="-17830.08" width="37.199999999999996" height="18160.08" rx="5" fill="#2563eb"/><text x="206.6" y="18.00" text-anchor="middle" font-size="11" fill="#111827">20196 us</text><rect x="233.2" y="100.00" width="37.199999999999996" height="230.00" rx="5" fill="#475569"/><text x="251.79999999999998" y="92.00" text-anchor="middle" font-size="11" fill="#111827">256 us</text><text x="225.2" y="362" text-anchor="middle" font-size="9" fill="#111827">multi</text><rect x="312.0" y="-5499.93" width="37.199999999999996" height="5829.93" rx="5" fill="#2563eb"/><text x="330.6" y="18.00" text-anchor="middle" font-size="11" fill="#111827">6484 us</text><rect x="357.2" y="282.83" width="37.199999999999996" height="47.17" rx="5" fill="#475569"/><text x="375.8" y="274.83" text-anchor="middle" font-size="11" fill="#111827">52 us</text><text x="349.2" y="362" text-anchor="middle" font-size="9" fill="#111827">duplicate</text><rect x="436.0" y="-5404.05" width="37.199999999999996" height="5734.05" rx="5" fill="#2563eb"/><text x="454.6" y="18.00" text-anchor="middle" font-size="11" fill="#111827">6377 us</text><rect x="481.2" y="301.71" width="37.199999999999996" height="28.29" rx="5" fill="#475569"/><text x="499.8" y="293.71" text-anchor="middle" font-size="11" fill="#111827">31 us</text><text x="473.2" y="362" text-anchor="middle" font-size="9" fill="#111827">recent</text><rect x="560.0" y="312.47" width="37.199999999999996" height="17.53" rx="5" fill="#2563eb"/><text x="578.6" y="304.47" text-anchor="middle" font-size="11" fill="#111827">20 us</text><rect x="605.2" y="304.52" width="37.199999999999996" height="25.48" rx="5" fill="#475569"/><text x="623.8000000000001" y="296.52" text-anchor="middle" font-size="11" fill="#111827">28 us</text><text x="597.2" y="362" text-anchor="middle" font-size="9" fill="#111827">reject</text><rect x="92" y="390" width="14" height="14" fill="#2563eb"/><text x="112" y="402" font-size="12" fill="#111827">Catalyst</text><rect x="242" y="390" width="14" height="14" fill="#475569"/><text x="262" y="402" font-size="12" fill="#111827">Linear scan</text></svg>
