<svg xmlns="http://www.w3.org/2000/svg" width="820" height="430" viewBox="0 0 820 430"><rect width="100%" height="100%" fill="#fbfaf7"/><text x="56" y="44" font-family="Inter, Helvetica, Arial, sans-serif" font-size="23" font-weight="700" fill="#111827">Query Throughput Comparison</text><text x="56" y="70" font-family="Inter, Helvetica, Arial, sans-serif" font-size="13" fill="#4b5563">Generated by catalyst-brain SDK evidence runner.</text><line x1="60" y1="330" x2="760" y2="330" stroke="#d1d5db"/><rect x="70" y="327.0" width="44" height="3.0" rx="5" fill="#475569"/><text x="92" y="364" text-anchor="middle" font-size="9" fill="#111827">FP16 KV</text><rect x="154" y="310.7" width="44" height="19.3" rx="5" fill="#475569"/><text x="176" y="364" text-anchor="middle" font-size="9" fill="#111827">KIVI 2-bit</text><rect x="238" y="318.6" width="44" height="11.4" rx="5" fill="#475569"/><text x="260" y="364" text-anchor="middle" font-size="9" fill="#111827">TurboQuant</text><rect x="322" y="222.6" width="44" height="107.4" rx="5" fill="#475569"/><text x="344" y="364" text-anchor="middle" font-size="9" fill="#111827">PyramidKV</text><rect x="406" y="277.8" width="44" height="52.2" rx="5" fill="#475569"/><text x="428" y="364" text-anchor="middle" font-size="9" fill="#111827">H2O 20%</text><rect x="490" y="327.0" width="44" height="3.0" rx="5" fill="#475569"/><text x="512" y="364" text-anchor="middle" font-size="9" fill="#111827">vLLM</text><rect x="574" y="95.0" width="44" height="235.0" rx="5" fill="#475569"/><text x="596" y="364" text-anchor="middle" font-size="9" fill="#111827">Sparse</text><rect x="658" y="327.0" width="44" height="3.0" rx="5" fill="#0f766e"/><text x="680" y="364" text-anchor="middle" font-size="9" fill="#111827">Catalyst</text></svg>
